<svg width="1" height="1" viewBox="0 0 1 1" fill="none" xmlns="http://www.w3.org/2000/svg">
<path fill-rule="evenodd" clip-rule="evenodd" d="M0.5 0C0.775957 0 1 0.224043 1 0.5C1 0.775957 0.775957 1 0.5 1C0.224043 1 0 0.775957 0 0.5C0 0.224043 0.224043 0 0.5 0ZM0.343678 0.780998V0.390527H0.213865V0.780998H0.343678ZM0.811686 0.780998V0.55708C0.811686 0.437141 0.747648 0.381346 0.662254 0.381346C0.593396 0.381346 0.562553 0.419215 0.545283 0.445812V0.390527H0.415504C0.417225 0.427162 0.415504 0.780998 0.415504 0.780998H0.545281V0.562932C0.545281 0.55126 0.546121 0.539592 0.549561 0.53125C0.558926 0.507939 0.580297 0.483791 0.616152 0.483791C0.663094 0.483791 0.6819 0.519611 0.6819 0.57208V0.780998H0.811686ZM0.279648 0.202246C0.235234 0.202246 0.206217 0.231445 0.206217 0.269717C0.206217 0.307182 0.234352 0.337186 0.27793 0.337186C0.323193 0.337186 0.352205 0.307182 0.352205 0.269717C0.351365 0.231445 0.324033 0.202246 0.279648 0.202246Z" fill="#1B262C"/>
</svg>
