<svg width="512" height="512" viewBox="0 0 512 512" fill="none" xmlns="http://www.w3.org/2000/svg">
<path d="M256 0C114.615 0 0 114.615 0 256C0 397.385 114.615 512 256 512C397.385 512 512 397.385 512 256C512 114.615 397.385 0 256 0ZM389.059 161.936L343.591 379C343.041 381.625 341.84 384.07 340.098 386.111C338.357 388.151 336.13 389.72 333.624 390.675C331.117 391.63 328.41 391.94 325.753 391.576C323.095 391.213 320.572 390.187 318.414 388.593L252.278 339.732L212.21 377.532C211.686 378.027 211.068 378.412 210.393 378.666C209.718 378.919 208.999 379.036 208.278 379.008C207.558 378.981 206.85 378.81 206.196 378.506C205.542 378.202 204.955 377.771 204.47 377.238L203.609 376.292L210.571 308.917L336.055 194.266C336.676 193.7 337.061 192.922 337.137 192.085C337.212 191.249 336.97 190.414 336.461 189.747C335.951 189.079 335.209 188.627 334.382 188.479C333.556 188.332 332.703 188.499 331.994 188.949L171.515 290.519L102.4 267.307C100.562 266.69 98.9606 265.519 97.8147 263.955C96.6688 262.391 96.0348 260.511 95.9998 258.573C95.9647 256.634 96.5303 254.733 97.6189 253.129C98.7075 251.524 100.266 250.296 102.08 249.613L372.5 147.744C374.586 146.959 376.845 146.749 379.04 147.135C381.235 147.522 383.285 148.491 384.978 149.942C386.67 151.392 387.942 153.27 388.66 155.38C389.378 157.49 389.515 159.754 389.059 161.936Z" fill="#1B262C"/>
</svg>
